<mxfile>
    <diagram id="bu2oYSP5vmxCT1DaRM1E" name="Page-1">
        <mxGraphModel dx="768" dy="543" grid="1" gridSize="10" guides="1" tooltips="1" connect="1" arrows="1" fold="1" page="1" pageScale="1" pageWidth="827" pageHeight="1169" math="0" shadow="0">
            <root>
                <mxCell id="0"/>
                <mxCell id="1" parent="0"/>
                <mxCell id="12" style="edgeStyle=orthogonalEdgeStyle;rounded=0;orthogonalLoop=1;jettySize=auto;html=1;exitX=0.5;exitY=1;exitDx=0;exitDy=0;entryX=0.5;entryY=0;entryDx=0;entryDy=0;fontFamily=Georgia;fontStyle=1;fontSize=13;strokeColor=#CC0000;" edge="1" parent="1" source="3" target="4">
                    <mxGeometry relative="1" as="geometry"/>
                </mxCell>
                <mxCell id="13" style="rounded=0;orthogonalLoop=1;jettySize=auto;html=1;exitX=1;exitY=1;exitDx=0;exitDy=0;entryX=0;entryY=0;entryDx=0;entryDy=0;fontFamily=Georgia;fontStyle=1;fontSize=13;strokeColor=#C78C02;" edge="1" parent="1" source="3" target="5">
                    <mxGeometry relative="1" as="geometry"/>
                </mxCell>
                <mxCell id="3" value="1000" style="ellipse;whiteSpace=wrap;html=1;aspect=fixed;fontFamily=Georgia;fontStyle=1;fontSize=13;fillColor=#CC0000;" vertex="1" parent="1">
                    <mxGeometry x="200" y="80" width="40" height="40" as="geometry"/>
                </mxCell>
                <mxCell id="15" style="edgeStyle=none;orthogonalLoop=1;jettySize=auto;html=1;exitX=0.5;exitY=1;exitDx=0;exitDy=0;entryX=0.5;entryY=0;entryDx=0;entryDy=0;fontFamily=Georgia;fontStyle=1;fontSize=13;strokeColor=#CC0000;" edge="1" parent="1" source="4" target="6">
                    <mxGeometry relative="1" as="geometry"/>
                </mxCell>
                <mxCell id="18" style="edgeStyle=none;orthogonalLoop=1;jettySize=auto;html=1;exitX=0;exitY=1;exitDx=0;exitDy=0;entryX=1;entryY=0;entryDx=0;entryDy=0;fontFamily=Georgia;fontStyle=1;fontSize=13;strokeColor=#00FFFF;" edge="1" parent="1" source="4" target="9">
                    <mxGeometry relative="1" as="geometry"/>
                </mxCell>
                <mxCell id="4" value="900" style="ellipse;whiteSpace=wrap;html=1;aspect=fixed;fontFamily=Georgia;fontStyle=1;fontSize=13;fillColor=#CC0000;" vertex="1" parent="1">
                    <mxGeometry x="200" y="160" width="40" height="40" as="geometry"/>
                </mxCell>
                <mxCell id="14" style="edgeStyle=none;orthogonalLoop=1;jettySize=auto;html=1;exitX=0.5;exitY=1;exitDx=0;exitDy=0;entryX=0.5;entryY=0;entryDx=0;entryDy=0;fontFamily=Georgia;fontStyle=1;fontSize=13;strokeColor=#C78C02;" edge="1" parent="1" source="5" target="7">
                    <mxGeometry relative="1" as="geometry"/>
                </mxCell>
                <mxCell id="5" value="100" style="ellipse;whiteSpace=wrap;html=1;aspect=fixed;fontFamily=Georgia;fontStyle=1;fontSize=13;fillColor=#C78C02;" vertex="1" parent="1">
                    <mxGeometry x="280" y="160" width="40" height="40" as="geometry"/>
                </mxCell>
                <mxCell id="17" style="edgeStyle=none;orthogonalLoop=1;jettySize=auto;html=1;exitX=0.5;exitY=1;exitDx=0;exitDy=0;entryX=0.5;entryY=0;entryDx=0;entryDy=0;fontFamily=Georgia;fontStyle=1;fontSize=13;strokeColor=#CC0000;" edge="1" parent="1" source="6" target="8">
                    <mxGeometry relative="1" as="geometry"/>
                </mxCell>
                <mxCell id="6" value="890" style="ellipse;whiteSpace=wrap;html=1;aspect=fixed;fontFamily=Georgia;fontStyle=1;fontSize=13;fillColor=#CC0000;" vertex="1" parent="1">
                    <mxGeometry x="200" y="240" width="40" height="40" as="geometry"/>
                </mxCell>
                <mxCell id="16" style="edgeStyle=none;orthogonalLoop=1;jettySize=auto;html=1;exitX=0;exitY=1;exitDx=0;exitDy=0;entryX=1;entryY=0;entryDx=0;entryDy=0;fontFamily=Georgia;fontStyle=1;fontSize=13;strokeColor=#C78C02;" edge="1" parent="1" source="7" target="8">
                    <mxGeometry relative="1" as="geometry"/>
                </mxCell>
                <mxCell id="7" value="100" style="ellipse;whiteSpace=wrap;html=1;aspect=fixed;fontFamily=Georgia;fontStyle=1;fontSize=13;fillColor=#C78C02;" vertex="1" parent="1">
                    <mxGeometry x="280" y="240" width="40" height="40" as="geometry"/>
                </mxCell>
                <mxCell id="20" style="edgeStyle=none;orthogonalLoop=1;jettySize=auto;html=1;exitX=0;exitY=1;exitDx=0;exitDy=0;entryX=1;entryY=0;entryDx=0;entryDy=0;fontFamily=Georgia;fontStyle=1;fontSize=13;strokeColor=#CC0000;" edge="1" parent="1" source="8" target="10">
                    <mxGeometry relative="1" as="geometry"/>
                </mxCell>
                <mxCell id="8" value="990" style="ellipse;whiteSpace=wrap;html=1;aspect=fixed;fontFamily=Georgia;fontStyle=1;fontSize=13;fillColor=#CC0000;" vertex="1" parent="1">
                    <mxGeometry x="200" y="320" width="40" height="40" as="geometry"/>
                </mxCell>
                <mxCell id="32" style="edgeStyle=orthogonalEdgeStyle;orthogonalLoop=1;jettySize=auto;html=1;exitX=0.5;exitY=1;exitDx=0;exitDy=0;entryX=0.5;entryY=0;entryDx=0;entryDy=0;strokeColor=#00FFFF;fontFamily=Georgia;fontSize=13;fontColor=#000000;" edge="1" parent="1" source="9" target="31">
                    <mxGeometry relative="1" as="geometry"/>
                </mxCell>
                <mxCell id="36" style="edgeStyle=orthogonalEdgeStyle;orthogonalLoop=1;jettySize=auto;html=1;exitX=0;exitY=0.5;exitDx=0;exitDy=0;strokeColor=#6600CC;strokeWidth=2;fontFamily=Georgia;fontSize=13;fontColor=#000000;entryX=0;entryY=0.5;entryDx=0;entryDy=0;" edge="1" parent="1" source="9" target="10">
                    <mxGeometry relative="1" as="geometry">
                        <mxPoint x="110" y="406" as="targetPoint"/>
                        <Array as="points">
                            <mxPoint x="120" y="261"/>
                            <mxPoint x="100" y="261"/>
                            <mxPoint x="100" y="420"/>
                        </Array>
                    </mxGeometry>
                </mxCell>
                <mxCell id="9" value="10" style="ellipse;whiteSpace=wrap;html=1;aspect=fixed;fontFamily=Georgia;fontStyle=1;fontSize=13;fillColor=#00FFFF;" vertex="1" parent="1">
                    <mxGeometry x="120" y="240" width="40" height="40" as="geometry"/>
                </mxCell>
                <mxCell id="10" value="998" style="ellipse;whiteSpace=wrap;html=1;aspect=fixed;fontFamily=Georgia;fontStyle=1;fontSize=13;fillColor=#CC0000;" vertex="1" parent="1">
                    <mxGeometry x="120" y="400" width="40" height="40" as="geometry"/>
                </mxCell>
                <mxCell id="21" value="&lt;font&gt;&lt;b&gt;Entry&lt;/b&gt;&lt;/font&gt;" style="text;html=1;align=center;verticalAlign=middle;resizable=0;points=[];autosize=1;fontSize=13;fontFamily=Georgia;" vertex="1" parent="1">
                    <mxGeometry x="260" y="90" width="50" height="20" as="geometry"/>
                </mxCell>
                <mxCell id="22" value="&lt;font&gt;&lt;b&gt;Exit&lt;br&gt;&lt;/b&gt;&lt;/font&gt;" style="text;html=1;align=center;verticalAlign=middle;resizable=0;points=[];autosize=1;fontSize=13;fontFamily=Georgia;" vertex="1" parent="1">
                    <mxGeometry x="180" y="410" width="40" height="20" as="geometry"/>
                </mxCell>
                <mxCell id="23" value="&lt;b&gt;A&lt;/b&gt;" style="text;html=1;align=center;verticalAlign=middle;resizable=0;points=[];autosize=1;fontSize=13;fontFamily=Georgia;" vertex="1" parent="1">
                    <mxGeometry x="180" y="90" width="20" height="20" as="geometry"/>
                </mxCell>
                <mxCell id="24" value="&lt;b&gt;C&lt;/b&gt;" style="text;html=1;align=center;verticalAlign=middle;resizable=0;points=[];autosize=1;fontSize=13;fontFamily=Georgia;" vertex="1" parent="1">
                    <mxGeometry x="290" y="140" width="20" height="20" as="geometry"/>
                </mxCell>
                <mxCell id="25" value="&lt;b&gt;B&lt;/b&gt;" style="text;html=1;align=center;verticalAlign=middle;resizable=0;points=[];autosize=1;fontSize=13;fontFamily=Georgia;" vertex="1" parent="1">
                    <mxGeometry x="180" y="140" width="20" height="20" as="geometry"/>
                </mxCell>
                <mxCell id="26" value="&lt;b&gt;D&lt;/b&gt;" style="text;html=1;align=center;verticalAlign=middle;resizable=0;points=[];autosize=1;fontSize=13;fontFamily=Georgia;" vertex="1" parent="1">
                    <mxGeometry x="105" y="220" width="20" height="20" as="geometry"/>
                </mxCell>
                <mxCell id="27" value="&lt;b&gt;E&lt;/b&gt;" style="text;html=1;align=center;verticalAlign=middle;resizable=0;points=[];autosize=1;fontSize=13;fontFamily=Georgia;" vertex="1" parent="1">
                    <mxGeometry x="185" y="220" width="20" height="20" as="geometry"/>
                </mxCell>
                <mxCell id="28" value="&lt;b&gt;F&lt;/b&gt;" style="text;html=1;align=center;verticalAlign=middle;resizable=0;points=[];autosize=1;fontSize=13;fontFamily=Georgia;" vertex="1" parent="1">
                    <mxGeometry x="260" y="220" width="20" height="20" as="geometry"/>
                </mxCell>
                <mxCell id="29" value="&lt;b&gt;H&lt;/b&gt;" style="text;html=1;align=center;verticalAlign=middle;resizable=0;points=[];autosize=1;fontSize=13;fontFamily=Georgia;" vertex="1" parent="1">
                    <mxGeometry x="180" y="300" width="30" height="20" as="geometry"/>
                </mxCell>
                <mxCell id="30" value="&lt;b&gt;I&lt;/b&gt;" style="text;html=1;align=center;verticalAlign=middle;resizable=0;points=[];autosize=1;fontSize=13;fontFamily=Georgia;" vertex="1" parent="1">
                    <mxGeometry x="105" y="380" width="20" height="20" as="geometry"/>
                </mxCell>
                <mxCell id="33" style="edgeStyle=orthogonalEdgeStyle;orthogonalLoop=1;jettySize=auto;html=1;exitX=0.5;exitY=1;exitDx=0;exitDy=0;entryX=0.5;entryY=0;entryDx=0;entryDy=0;strokeColor=#00FFFF;fontFamily=Georgia;fontSize=13;fontColor=#000000;" edge="1" parent="1" source="31" target="10">
                    <mxGeometry relative="1" as="geometry"/>
                </mxCell>
                <mxCell id="31" value="8" style="ellipse;whiteSpace=wrap;html=1;aspect=fixed;fontFamily=Georgia;fontStyle=1;fontSize=13;fillColor=#00FFFF;" vertex="1" parent="1">
                    <mxGeometry x="120" y="320" width="40" height="40" as="geometry"/>
                </mxCell>
                <mxCell id="34" value="&lt;b&gt;G&lt;/b&gt;" style="text;html=1;align=center;verticalAlign=middle;resizable=0;points=[];autosize=1;fontSize=13;fontFamily=Georgia;" vertex="1" parent="1">
                    <mxGeometry x="100" y="300" width="30" height="20" as="geometry"/>
                </mxCell>
            </root>
        </mxGraphModel>
    </diagram>
</mxfile>